<svg xmlns="http://www.w3.org/2000/svg" fill="none" preserveAspectRatio="none" viewBox="0 0 647 577"><defs/><path fill="#160202" fill-rule="evenodd" d="M0 291.526l78-111 20-85 48.889-89.013L324.993.256l56.309 20.488L505.454 4.615l59.533-3.077L659 0v239.026l-6 178 6 159-71-19-174 19-138-11-99-7-51-78.5-58-94.827-68-93.173z" clip-rule="evenodd" opacity=".3"/><path fill="#160202" fill-rule="evenodd" d="M10 298.526l65-112 33-84 48.889-95.013 178.104-.257 56.309 4.488 124.152-.129 59.533-3.077L669 7v239.026l-6 178 6 140H424l-138 4-90-4-60-77.5-58-94.827-68-93.173z" clip-rule="evenodd"/></svg>