<svg width="144" height="30" viewBox="0 0 144 30" fill="none" xmlns="http://www.w3.org/2000/svg">
<g clip-path="url(#clip0_99_1195)">
<path d="M3.31653 23.2378V29.7057H0V10.4434H3.31653V19.7439L11.2267 10.4434H14.5858L7.05875 19.2202L14.8412 29.7018H11.4395L5.058 21.3379L3.31266 23.2378H3.31653Z" fill="white"/>
<path d="M23.6568 0C28.2504 0 30.5066 2.89755 30.5066 7.39297V22.6032C30.5066 27.0566 28.2504 29.9962 23.6568 29.9962C19.0632 29.9962 16.8496 27.0566 16.8496 22.6032V7.39297C16.8535 2.89755 19.1058 0 23.6568 0ZM23.6568 27.0145C26.0794 27.0145 27.1862 25.4587 27.1862 22.7714V7.22859C27.1862 4.58333 26.0794 2.98547 23.6568 2.98547C21.2342 2.98547 20.1274 4.58333 20.1274 7.22859V22.7714C20.1274 25.4587 21.2768 27.0145 23.6568 27.0145Z" fill="white"/>
<path d="M36.9811 22.7485V29.7018H33.6646V8.987H36.9811V18.9908L44.8912 8.987H48.2503L40.7233 18.4289L48.5057 29.7057H45.1041L38.7225 20.7072L36.9772 22.7485H36.9811Z" fill="white"/>
<path d="M51.4508 8.06575L52.515 4.36927H51.2805V0.294342H54.4732L55.7619 3.27599L52.813 8.06575H51.4508Z" fill="white"/>
<path d="M57.8323 29.7057V0.294342H61.6906L68.0063 21.552V0.294342H70.6959V29.7057H67.5381L60.5606 5.92508V29.7057H57.8323Z" fill="white"/>
<path d="M95.0182 6.80428V8.1919C95.0182 11.2997 94.1282 13.2339 91.5314 14.0329C94.4223 14.8318 95.5291 17.0986 95.5291 20.3364V22.8135C95.5291 27.2248 93.358 29.7018 88.7219 29.7018H81.876V0.294342H88.5516C93.1878 0.294342 95.0144 2.48089 95.0144 6.80428H95.0182ZM91.7443 8.86468V7.14067C91.7443 4.53746 90.8503 3.27599 88.4703 3.27599H85.1925V12.7714H87.7467C90.3821 12.7714 91.7443 11.9304 91.7443 8.86468ZM92.2551 22.7294V20.1261C92.2551 16.8502 90.9355 15.7569 88.0872 15.7569H85.1925V26.724H88.7219C91.1444 26.724 92.2513 25.4625 92.2513 22.7332L92.2551 22.7294Z" fill="white"/>
<path d="M100.951 29.7057H97.708L103.745 8.987H108.834L114.871 29.7057H111.357L110.138 25.5313H102.166L100.951 29.7057ZM109.647 23.5512L106.09 11.594L102.623 23.5512H109.651H109.647Z" fill="white"/>
<path d="M116.52 0.294342H119.836V26.7202H128.342V29.7018H116.516V0.294342H116.52Z" fill="white"/>
<path d="M130.389 29.7057V26.7661L140.598 3.27982H130.858V0.294342H144V3.23777L133.748 26.724H143.915V29.7057H130.389Z" fill="white"/>
</g>
<defs>
<clipPath id="clip0_99_1195">
<rect width="144" height="30" fill="white"/>
</clipPath>
</defs>
</svg>
